<svg width="151" height="72" viewBox="0 0 151 72" fill="none" xmlns="http://www.w3.org/2000/svg">
<path d="M28.5555 42.7314L78.5555 33.8425L123.556 24.9536" stroke="#999999" stroke-width="2"/>
<path d="M28.5556 68.287C42.6695 68.287 54.1111 56.8454 54.1111 42.7314C54.1111 28.6175 42.6695 17.1758 28.5556 17.1758C14.4416 17.1758 3 28.6175 3 42.7314C3 56.8454 14.4416 68.287 28.5556 68.287Z" stroke="#757575" stroke-width="6"/>
<path d="M28.5555 46.7314C30.7647 46.7314 32.5555 44.9406 32.5555 42.7314C32.5555 40.5223 30.7647 38.7314 28.5555 38.7314C26.3464 38.7314 24.5555 40.5223 24.5555 42.7314C24.5555 44.9406 26.3464 46.7314 28.5555 46.7314Z" fill="#757575"/>
<path d="M101.103 33.8425L66.008 54.1048V13.5802L101.103 33.8425Z" stroke="#757575" stroke-width="6"/>
<path d="M78.5555 37.8425C80.7647 37.8425 82.5555 36.0517 82.5555 33.8425C82.5555 31.6334 80.7647 29.8425 78.5555 29.8425C76.3464 29.8425 74.5555 31.6334 74.5555 33.8425C74.5555 36.0517 76.3464 37.8425 78.5555 37.8425Z" fill="#757575"/>
<path d="M144.97 24.9536L112.141 43.9073V6L144.97 24.9536Z" stroke="#1A1A1A" stroke-width="6"/>
<path d="M123.556 28.9536C125.765 28.9536 127.556 27.1628 127.556 24.9536C127.556 22.7445 125.765 20.9536 123.556 20.9536C121.346 20.9536 119.556 22.7445 119.556 24.9536C119.556 27.1628 121.346 28.9536 123.556 28.9536Z" fill="#1A1A1A"/>
</svg>
