<svg width="16" height="16" viewBox="0 0 16 16" fill="none" xmlns="http://www.w3.org/2000/svg">
<path fill-rule="evenodd" clip-rule="evenodd" d="M7.99961 0.392578C3.69221 0.392578 0.200012 3.88498 0.200012 8.19298C0.200012 11.6392 2.43441 14.5628 5.53421 15.5936C5.92461 15.6658 6.06661 15.4256 6.06661 15.2182C6.06661 15.0334 6.05981 14.5432 6.05641 13.8916C3.88661 14.3634 3.42881 12.8458 3.42881 12.8458C3.07401 11.9448 2.56261 11.7052 2.56261 11.7052C1.85441 11.2216 2.61641 11.231 2.61641 11.231C3.39921 11.2864 3.81121 12.0346 3.81121 12.0346C4.50681 13.2266 5.63701 12.8816 6.08121 12.6832C6.15181 12.1782 6.35381 11.8352 6.57641 11.6398C4.84461 11.443 3.02381 10.7738 3.02381 7.78498C3.02381 6.93318 3.32761 6.23678 3.82641 5.69138C3.74661 5.49498 3.47841 4.70198 3.90301 3.62758C3.90301 3.62758 4.55781 3.41798 6.04821 4.42778C6.67001 4.25398 7.33741 4.16718 8.00081 4.16458C8.66321 4.16738 9.33081 4.25398 9.95341 4.42778C11.4428 3.41798 12.0966 3.62758 12.0966 3.62758C12.5222 4.70198 12.2542 5.49498 12.1742 5.69138C12.6742 6.23678 12.9758 6.93318 12.9758 7.78498C12.9758 10.7808 11.1524 11.4408 9.41481 11.6332C9.69441 11.8742 9.94401 12.3512 9.94401 13.079C9.94401 14.1212 9.93461 14.9622 9.93461 15.218C9.93461 15.427 10.0748 15.67 10.4708 15.5926C13.5672 14.5596 15.8 11.6382 15.8 8.19298C15.8 3.88498 12.3078 0.392578 7.99961 0.392578Z" fill="white"/>
</svg>
