<svg width="16" height="16" viewBox="0 0 16 16" fill="none" xmlns="http://www.w3.org/2000/svg">
<path d="M11.5214 0.692383C10.1196 0.692383 8.83481 1.33998 8.00001 2.42718C7.16521 1.33978 5.88041 0.692383 4.47801 0.692383C2.02481 0.692383 0.0214122 2.69498 0.0120122 5.15638C0.00281216 7.80538 1.28381 9.36718 2.31341 10.6226L2.53421 10.8924C3.75321 12.3954 7.53261 15.095 7.69261 15.2092C7.78421 15.2748 7.89261 15.3076 8.00021 15.3076C8.10801 15.3076 8.21621 15.2746 8.30801 15.2092C8.46801 15.095 12.2474 12.3954 13.4664 10.8924L13.687 10.6226C14.7164 9.36718 15.9976 7.80538 15.9884 5.15638C15.9788 2.69498 13.9752 0.692383 11.5214 0.692383Z" fill="white"/>
</svg>
