<svg width="309" height="778" viewBox="0 0 309 778" fill="none" xmlns="http://www.w3.org/2000/svg">
<rect x="75" y="350" width="10" height="36" fill="#9B20DC"/>
<rect x="75" y="386" width="10" height="23" transform="rotate(-90 75 386)" fill="#9B20DC"/>
<rect x="224" y="742" width="10" height="36" fill="#FF4900"/>
<rect x="224" y="778" width="10" height="23" transform="rotate(-90 224 778)" fill="#FF4900"/>
<rect x="211" y="752" width="10" height="23" transform="rotate(-90 211 752)" fill="#FF4900"/>
<rect x="34" y="14" width="10" height="36" fill="#FF4900"/>
<rect x="34" y="50" width="10" height="23" transform="rotate(-90 34 50)" fill="#FF4900"/>
<rect x="21" y="24" width="10" height="23" transform="rotate(-90 21 24)" fill="#FF4900"/>
<rect x="32.5" y="751.5" width="10" height="36" transform="rotate(-90 32.5 751.5)" fill="#48C0AC"/>
<rect x="68.5" y="751.5" width="10" height="23" transform="rotate(-180 68.5 751.5)" fill="#48C0AC"/>
<rect x="307" y="596" width="10" height="36" transform="rotate(-180 307 596)" fill="#48C0AC"/>
<rect x="307" y="560" width="10" height="23" transform="rotate(90 307 560)" fill="#48C0AC"/>
<rect y="155" width="20" height="20" fill="#0086FF"/>
<rect x="4" y="493" width="20" height="20" fill="#56A62B"/>
<rect x="289" width="20" height="20" fill="#0086FF"/>
</svg>
