<svg width="1173" height="161" viewBox="0 0 1173 161" fill="none" xmlns="http://www.w3.org/2000/svg">
<rect x="875" y="110" width="10" height="36" fill="#9B20DC"/>
<rect x="875" y="146" width="10" height="23" transform="rotate(-90 875 146)" fill="#9B20DC"/>
<rect x="124" y="95" width="10" height="36" fill="#FF4900"/>
<rect x="124" y="131" width="10" height="23" transform="rotate(-90 124 131)" fill="#FF4900"/>
<rect x="111" y="105" width="10" height="23" transform="rotate(-90 111 105)" fill="#FF4900"/>
<rect x="1137" y="105" width="10" height="36" transform="rotate(-90 1137 105)" fill="#48C0AC"/>
<rect x="1173" y="105" width="10" height="23" transform="rotate(-180 1173 105)" fill="#48C0AC"/>
<rect x="718" y="118" width="10" height="36" transform="rotate(-180 718 118)" fill="#48C0AC"/>
<rect x="718" y="82" width="10" height="23" transform="rotate(90 718 82)" fill="#48C0AC"/>
<rect y="136" width="20" height="20" fill="#0086FF"/>
<rect x="1088" width="20" height="20" fill="#56A62B"/>
<rect x="369" y="141" width="20" height="20" fill="#0086FF"/>
</svg>
