<svg width="1281" height="538" viewBox="0 0 1281 538" fill="none" xmlns="http://www.w3.org/2000/svg">
<rect x="75" y="336" width="10" height="36" fill="#9B20DC"/>
<rect x="75" y="372" width="10" height="23" transform="rotate(-90 75 372)" fill="#9B20DC"/>
<rect x="1063" y="453" width="10" height="36" fill="#9B20DC"/>
<rect x="1063" y="489" width="10" height="23" transform="rotate(-90 1063 489)" fill="#9B20DC"/>
<rect x="1235" y="125" width="10" height="36" fill="#9B20DC"/>
<rect x="1235" y="161" width="10" height="23" transform="rotate(-90 1235 161)" fill="#9B20DC"/>
<rect x="274" y="388" width="10" height="36" fill="#FF4900"/>
<rect x="274" y="424" width="10" height="23" transform="rotate(-90 274 424)" fill="#FF4900"/>
<rect x="261" y="398" width="10" height="23" transform="rotate(-90 261 398)" fill="#FF4900"/>
<rect x="164" width="10" height="36" fill="#FF4900"/>
<rect x="164" y="36" width="10" height="23" transform="rotate(-90 164 36)" fill="#FF4900"/>
<rect x="151" y="10" width="10" height="23" transform="rotate(-90 151 10)" fill="#FF4900"/>
<rect x="1258" y="362" width="10" height="36" fill="#FF4900"/>
<rect x="1258" y="398" width="10" height="23" transform="rotate(-90 1258 398)" fill="#FF4900"/>
<rect x="1245" y="372" width="10" height="23" transform="rotate(-90 1245 372)" fill="#FF4900"/>
<rect x="412.5" y="537.5" width="10" height="36" transform="rotate(-90 412.5 537.5)" fill="#48C0AC"/>
<rect x="448.5" y="537.5" width="10" height="23" transform="rotate(-180 448.5 537.5)" fill="#48C0AC"/>
<rect x="737" y="82" width="10" height="36" transform="rotate(-180 737 82)" fill="#48C0AC"/>
<rect x="737" y="46" width="10" height="23" transform="rotate(90 737 46)" fill="#48C0AC"/>
<rect y="141" width="20" height="20" fill="#0086FF"/>
<rect x="144" y="479" width="20" height="20" fill="#56A62B"/>
<rect x="1128" y="5" width="20" height="20" fill="#56A62B"/>
<rect x="409" y="36" width="20" height="20" fill="#0086FF"/>
<rect x="1022" y="301" width="20" height="20" fill="#0086FF"/>
</svg>
