<svg width="417" height="140" viewBox="0 0 417 140" fill="none" xmlns="http://www.w3.org/2000/svg">
<path fill-rule="evenodd" clip-rule="evenodd" d="M48.2243 14.6871C48.2243 15.9593 47.9566 17.2189 47.4365 18.3942C46.9163 19.5695 46.154 20.6374 45.1929 21.537C44.2319 22.4365 43.0909 23.1501 41.8353 23.6369C40.5796 24.1237 39.2337 24.3743 37.8746 24.3743C36.5155 24.3743 35.1696 24.1237 33.9139 23.6369C32.6583 23.1501 31.5173 22.4365 30.5563 21.537C29.5952 20.6374 28.8329 19.5695 28.3127 18.3942C27.7926 17.2189 27.5249 15.9593 27.5249 14.6871C27.5249 13.415 27.7926 12.1553 28.3127 10.98C28.8329 9.80473 29.5952 8.73683 30.5563 7.8373C31.5173 6.93776 32.6583 6.22421 33.9139 5.73739C35.1696 5.25056 36.5155 5 37.8746 5C39.2337 5 40.5796 5.25056 41.8353 5.73739C43.0909 6.22421 44.2319 6.93776 45.1929 7.8373C46.154 8.73683 46.9163 9.80473 47.4365 10.98C47.9566 12.1553 48.2243 13.415 48.2243 14.6871Z" fill="white" fill-opacity="0.63"/>
<path fill-rule="evenodd" clip-rule="evenodd" d="M11.9304 93.3279H25.7067L25.8466 130.933C25.8466 130.933 26.2599 134.976 30.9575 135C36.199 135.025 36.2662 130.933 36.2662 130.933L36.2786 93.0607L39.3432 93.0588V130.933C39.3432 130.933 39.8861 135 44.559 135C49.4297 134.999 49.9726 130.933 49.9726 130.933L49.9196 93.3952L63.7489 93.2943L48.6789 43.3113L51.2313 43.2441L60.3572 72.4737C60.3572 72.4737 62.5403 76.5386 66.2594 74.9358C69.9848 73.3302 69.0286 69.581 69.0286 69.581L58.7188 36.5937C58.7188 36.5937 56.777 32.9109 54.0934 31.0357C51.4098 29.1605 47.49 28.1415 47.49 28.1415L28.3991 28.2088C28.3991 28.2088 24.4778 28.934 21.768 30.8008C19.0582 32.6675 17.114 36.61 17.114 36.61L6.64858 69.1141C6.64858 69.1141 5.90309 73.4584 10.0073 74.8022C14.3963 76.2508 15.7395 71.7377 15.7395 71.7377L24.483 43.345H26.6508L11.9304 93.3279Z" fill="white" fill-opacity="0.63"/>
<path d="M94.9454 135.478C92.8422 134.788 91.1765 133.236 90.7007 131.522C90.5112 130.84 90.4208 116.874 90.4198 88.092L90.4183 45.6678H89.3527H88.2871V61.6821C88.2871 77.3813 88.2763 77.7155 87.7363 78.6651C87.0369 79.8951 86.2514 80.4714 84.7142 80.8826C82.4415 81.4904 79.9561 80.3297 79.0635 78.2437C78.4893 76.9016 78.5267 41.1047 79.1046 38.8857C80.4075 33.8838 84.6266 29.786 89.5472 28.7432C92.1393 28.194 116.105 28.1872 118.689 28.735C121.322 29.293 123.583 30.5551 125.583 32.5835C127.641 34.6698 128.602 36.3622 129.319 39.1638C129.818 41.1165 129.845 42.1623 129.845 59.1722C129.845 74.721 129.791 77.2512 129.436 78.1008C128.884 79.4218 128.316 80.0159 127.048 80.598C124.945 81.5638 122.272 80.9424 121.028 79.1986L120.388 78.3018L120.316 61.9848L120.243 45.6678H119.184H118.124V88.3003C118.124 135.034 118.23 131.93 116.578 133.671C115.273 135.045 113.943 135.565 111.73 135.565C109.518 135.565 108.187 135.045 106.883 133.671C105.263 131.964 105.337 133.287 105.337 105.883V80.8326H104.271H103.206V105.883C103.206 126.297 103.139 131.091 102.846 131.79C102.31 133.071 101.142 134.334 99.9164 134.959C98.7352 135.561 96.0534 135.842 94.9454 135.478H94.9454Z" fill="white" fill-opacity="0.63"/>
<path fill-rule="evenodd" clip-rule="evenodd" d="M114.576 15.6533C114.576 16.9758 114.309 18.2854 113.789 19.5074C113.269 20.7293 112.506 21.8396 111.545 22.7749C110.584 23.7101 109.443 24.452 108.188 24.9582C106.932 25.4643 105.586 25.7248 104.226 25.7248C102.867 25.7248 101.521 25.4643 100.265 24.9582C99.0096 24.452 97.8686 23.7101 96.9075 22.7749C95.9465 21.8396 95.1841 20.7293 94.6641 19.5074C94.1441 18.2854 93.8766 16.9758 93.8768 15.6533C93.8766 14.3307 94.1441 13.0211 94.6641 11.7991C95.1841 10.5772 95.9465 9.46692 96.9075 8.53166C97.8686 7.59641 99.0096 6.85452 100.265 6.34835C101.521 5.84219 102.867 5.58167 104.226 5.58167C105.586 5.58167 106.932 5.84219 108.188 6.34835C109.443 6.85452 110.584 7.59641 111.545 8.53166C112.506 9.46692 113.269 10.5772 113.789 11.7991C114.309 13.0211 114.576 14.3307 114.576 15.6533V15.6533Z" fill="white" fill-opacity="0.63"/>
<path fill-rule="evenodd" clip-rule="evenodd" d="M182.224 14.6871C182.224 15.9593 181.957 17.2189 181.436 18.3942C180.916 19.5695 180.154 20.6374 179.193 21.537C178.232 22.4365 177.091 23.1501 175.835 23.6369C174.58 24.1237 173.234 24.3743 171.875 24.3743C170.515 24.3743 169.17 24.1237 167.914 23.6369C166.658 23.1501 165.517 22.4365 164.556 21.537C163.595 20.6374 162.833 19.5695 162.313 18.3942C161.793 17.2189 161.525 15.9593 161.525 14.6871C161.525 13.415 161.793 12.1553 162.313 10.98C162.833 9.80473 163.595 8.73683 164.556 7.8373C165.517 6.93776 166.658 6.22421 167.914 5.73739C169.17 5.25056 170.515 5 171.875 5C173.234 5 174.58 5.25056 175.835 5.73739C177.091 6.22421 178.232 6.93776 179.193 7.8373C180.154 8.73683 180.916 9.80473 181.436 10.98C181.957 12.1553 182.224 13.415 182.224 14.6871V14.6871Z" fill="white" fill-opacity="0.63"/>
<path fill-rule="evenodd" clip-rule="evenodd" d="M145.93 93.3279H159.707L159.847 130.933C159.847 130.933 160.26 134.976 164.958 135C170.199 135.025 170.266 130.933 170.266 130.933L170.279 93.0607L173.343 93.0588V130.933C173.343 130.933 173.886 135 178.559 135C183.43 134.999 183.973 130.933 183.973 130.933L183.92 93.3952L197.749 93.2943L182.679 43.3113L185.231 43.2441L194.357 72.4737C194.357 72.4737 196.54 76.5386 200.259 74.9358C203.985 73.3302 203.029 69.581 203.029 69.581L192.719 36.5937C192.719 36.5937 190.777 32.9109 188.093 31.0357C185.41 29.1605 181.49 28.1415 181.49 28.1415L162.399 28.2088C162.399 28.2088 158.478 28.934 155.768 30.8008C153.058 32.6675 151.114 36.61 151.114 36.61L140.649 69.1141C140.649 69.1141 139.903 73.4584 144.007 74.8022C148.396 76.2508 149.74 71.7377 149.74 71.7377L158.483 43.345H160.651L145.93 93.3279Z" fill="white" fill-opacity="0.63"/>
<path d="M228.945 135.478C226.842 134.788 225.177 133.236 224.701 131.522C224.511 130.84 224.421 116.874 224.42 88.092L224.418 45.6678H223.353H222.287V61.6821C222.287 77.3813 222.276 77.7155 221.736 78.6651C221.037 79.8951 220.251 80.4714 218.714 80.8826C216.442 81.4904 213.956 80.3297 213.064 78.2437C212.489 76.9016 212.527 41.1047 213.105 38.8857C214.407 33.8838 218.627 29.786 223.547 28.7432C226.139 28.194 250.105 28.1872 252.689 28.735C255.322 29.293 257.583 30.5551 259.583 32.5835C261.641 34.6698 262.602 36.3622 263.319 39.1638C263.818 41.1165 263.845 42.1623 263.845 59.1722C263.845 74.721 263.791 77.2512 263.436 78.1008C262.884 79.4218 262.316 80.0159 261.048 80.598C258.945 81.5638 256.272 80.9424 255.028 79.1986L254.388 78.3018L254.316 61.9848L254.243 45.6678H253.184H252.124V88.3003C252.124 135.034 252.23 131.93 250.578 133.671C249.273 135.045 247.943 135.565 245.73 135.565C243.518 135.565 242.187 135.045 240.883 133.671C239.263 131.964 239.337 133.287 239.337 105.883V80.8326H238.271H237.206V105.883C237.206 126.297 237.139 131.091 236.846 131.79C236.31 133.071 235.142 134.334 233.916 134.959C232.735 135.561 230.053 135.842 228.945 135.478H228.945Z" fill="white" fill-opacity="0.63"/>
<path fill-rule="evenodd" clip-rule="evenodd" d="M248.576 15.6533C248.576 16.9758 248.309 18.2854 247.789 19.5074C247.269 20.7293 246.506 21.8396 245.545 22.7749C244.584 23.7101 243.443 24.452 242.188 24.9582C240.932 25.4643 239.586 25.7248 238.226 25.7248C236.867 25.7248 235.521 25.4643 234.265 24.9582C233.01 24.452 231.869 23.7101 230.908 22.7749C229.946 21.8396 229.184 20.7293 228.664 19.5074C228.144 18.2854 227.877 16.9758 227.877 15.6533C227.877 14.3307 228.144 13.0211 228.664 11.7991C229.184 10.5772 229.946 9.46692 230.908 8.53166C231.869 7.59641 233.01 6.85452 234.265 6.34835C235.521 5.84219 236.867 5.58167 238.226 5.58167C239.586 5.58167 240.932 5.84219 242.188 6.34835C243.443 6.85452 244.584 7.59641 245.545 8.53166C246.506 9.46692 247.269 10.5772 247.789 11.7991C248.309 13.0211 248.576 14.3307 248.576 15.6533V15.6533Z" fill="white" fill-opacity="0.63"/>
<path fill-rule="evenodd" clip-rule="evenodd" d="M311.224 14.6871C311.224 15.9593 310.957 17.2189 310.436 18.3942C309.916 19.5695 309.154 20.6374 308.193 21.537C307.232 22.4365 306.091 23.1501 304.835 23.6369C303.58 24.1237 302.234 24.3743 300.875 24.3743C299.515 24.3743 298.17 24.1237 296.914 23.6369C295.658 23.1501 294.517 22.4365 293.556 21.537C292.595 20.6374 291.833 19.5695 291.313 18.3942C290.793 17.2189 290.525 15.9593 290.525 14.6871C290.525 13.415 290.793 12.1553 291.313 10.98C291.833 9.80473 292.595 8.73683 293.556 7.8373C294.517 6.93776 295.658 6.22421 296.914 5.73739C298.17 5.25056 299.515 5 300.875 5C302.234 5 303.58 5.25056 304.835 5.73739C306.091 6.22421 307.232 6.93776 308.193 7.8373C309.154 8.73683 309.916 9.80473 310.436 10.98C310.957 12.1553 311.224 13.415 311.224 14.6871V14.6871Z" fill="white" fill-opacity="0.63"/>
<path fill-rule="evenodd" clip-rule="evenodd" d="M274.93 93.3279H288.707L288.847 130.933C288.847 130.933 289.26 134.976 293.958 135C299.199 135.025 299.266 130.933 299.266 130.933L299.279 93.0607L302.343 93.0588V130.933C302.343 130.933 302.886 135 307.559 135C312.43 134.999 312.973 130.933 312.973 130.933L312.92 93.3952L326.749 93.2943L311.679 43.3113L314.231 43.2441L323.357 72.4737C323.357 72.4737 325.54 76.5386 329.259 74.9358C332.985 73.3302 332.029 69.581 332.029 69.581L321.719 36.5937C321.719 36.5937 319.777 32.9109 317.093 31.0357C314.41 29.1605 310.49 28.1415 310.49 28.1415L291.399 28.2088C291.399 28.2088 287.478 28.934 284.768 30.8008C282.058 32.6675 280.114 36.61 280.114 36.61L269.649 69.1141C269.649 69.1141 268.903 73.4584 273.007 74.8022C277.396 76.2508 278.74 71.7377 278.74 71.7377L287.483 43.345H289.651L274.93 93.3279Z" fill="white" fill-opacity="0.63"/>
<path d="M357.945 135.478C355.842 134.788 354.177 133.236 353.701 131.522C353.511 130.84 353.421 116.874 353.42 88.092L353.418 45.6678H352.353H351.287V61.6821C351.287 77.3813 351.276 77.7155 350.736 78.6651C350.037 79.8951 349.251 80.4714 347.714 80.8826C345.442 81.4904 342.956 80.3297 342.064 78.2437C341.489 76.9016 341.527 41.1047 342.105 38.8857C343.407 33.8838 347.627 29.786 352.547 28.7432C355.139 28.194 379.105 28.1872 381.689 28.735C384.322 29.293 386.583 30.5551 388.583 32.5835C390.641 34.6698 391.602 36.3622 392.319 39.1638C392.818 41.1165 392.845 42.1623 392.845 59.1722C392.845 74.721 392.791 77.2512 392.436 78.1008C391.884 79.4218 391.316 80.0159 390.048 80.598C387.945 81.5638 385.272 80.9424 384.028 79.1986L383.388 78.3018L383.316 61.9848L383.243 45.6678H382.184H381.124V88.3003C381.124 135.034 381.23 131.93 379.578 133.671C378.273 135.045 376.943 135.565 374.73 135.565C372.518 135.565 371.187 135.045 369.883 133.671C368.263 131.964 368.337 133.287 368.337 105.883V80.8326H367.271H366.206V105.883C366.206 126.297 366.139 131.091 365.846 131.79C365.31 133.071 364.142 134.334 362.916 134.959C361.735 135.561 359.053 135.842 357.945 135.478H357.945Z" fill="white" fill-opacity="0.63"/>
<path fill-rule="evenodd" clip-rule="evenodd" d="M377.576 15.6533C377.576 16.9758 377.309 18.2854 376.789 19.5074C376.269 20.7293 375.506 21.8396 374.545 22.7749C373.584 23.7101 372.443 24.452 371.188 24.9582C369.932 25.4643 368.586 25.7248 367.226 25.7248C365.867 25.7248 364.521 25.4643 363.265 24.9582C362.01 24.452 360.869 23.7101 359.908 22.7749C358.946 21.8396 358.184 20.7293 357.664 19.5074C357.144 18.2854 356.877 16.9758 356.877 15.6533C356.877 14.3307 357.144 13.0211 357.664 11.7991C358.184 10.5772 358.946 9.46692 359.908 8.53166C360.869 7.59641 362.01 6.85452 363.265 6.34835C364.521 5.84219 365.867 5.58167 367.226 5.58167C368.586 5.58167 369.932 5.84219 371.188 6.34835C372.443 6.85452 373.584 7.59641 374.545 8.53166C375.506 9.46692 376.269 10.5772 376.789 11.7991C377.309 13.0211 377.576 14.3307 377.576 15.6533V15.6533Z" fill="white" fill-opacity="0.63"/>
</svg>
